<?xml version="1.0" encoding="UTF-8"?>
<svg version="1.1" viewBox="0 0 1536 1024" width="1536" height="1024" xmlns="http://www.w3.org/2000/svg">
<path transform="translate(855,267)" d="m0 0h60l1 29v49l-151 151 150 1v79h-295v-76l27-27 7-8 24-24 1-2h2v-2l7-6 7-8 26-26 7-8 31-31 7-8 3-3-149-1 1-78z" fill="#0160D2"/>
<path transform="translate(855,267)" d="m0 0h59l-2 4-27 27-1 2h-2l-2 4-15 15-7 8-10 10-7 8-19 19-7 8-22 22-4 5h-2l-2 4-4 2-2 4-6 7-5 5h-2l-2 4-3 1-2 5-5 4-7 8-12 13-15 16-7 8-5 5-8 9-21 21-7 8-15 16-19 19-7 8-7 7h-2l-1 2-1-3v-72l27-27 7-8 24-24 1-2h2v-2l7-6 7-8 26-26 7-8 31-31 7-8 3-3-149-1 1-78z" fill="#01C1FE"/>
<path transform="translate(794,162)" d="m0 0 29 5 20 5 24 8 24 11 22 12 17 12 14 11 10 9 6 5 7 8 7 7 11 14 12 17 11 19 10 21 9 25 6 22 5 27v3l-11-2-27-6-2-6-5-21-9-26-10-22-11-19-8-11-7-9-18-20-10-9-13-10-17-11-16-9-23-10-18-6-22-5-9-2-2-5-7-31z" fill="#01A2FA"/>
<path transform="translate(741,162)" d="m0 0h1l-1 10-6 26-4 2-20 4-26 8-21 9-17 9-15 10-14 11-15 14-8 8-9 11-13 18-12 21-8 18-9 27-6 25-1 2-36 8h-2l1-9 6-29 8-26 8-20 8-16 8-14 11-16 13-16 14-15 11-11 11-9 13-10 15-10 16-9 21-10 24-9 21-6z" fill="#01AEFD"/>
<path transform="translate(1035,450)" d="m0 0h4l-3 24-5 23-9 27-6 13-11 21-12 17-8 10-11 12-16 16-14 11-18 13-25 14-16 7-27 10-32 8-30 5h-2l2-11 5-22 2-3 28-6 17-5 19-7 25-12 14-8 16-11 11-9 13-12 11-12 13-18 9-16 9-19 7-22 4-21 1-8 2-2z" fill="#0192F3"/>
<path transform="translate(498,450)" d="m0 0 11 2 23 5 4 2 5 27 5 16 8 20 9 17 12 17 11 13 17 17 9 7 14 10 13 8 18 10 21 9 24 8 31 7 3 9 6 26-2 1-28-5-29-7-28-10-24-11-16-9-15-10-13-10-14-12-19-19-11-14-11-16-9-16-8-17-7-19-6-24-4-25z" fill="#0192F4"/>
<path transform="translate(914,267)" d="m0 0h1l1 29v49l-134 134-3-1-2-5 4-1-5-9-6-4-7-3v-2h-2v-2l-2-1-3-4-4 2h-6l-3-3 9-9 4-5 5-5 5-6 5-5h2l2-4 6-7 5-4 7-8 27-27 7-8 19-19 7-8 10-10 7-8 11-11 1-2h2l2-4 27-27z" fill="#0179E4"/>
<path transform="translate(764,497)" d="m0 0h151v79l-11-1v-1l7-1-17-16-15-15-1-2-3-1h-153v-3l12-11 25-25z" fill="#0191F3"/>
<path transform="translate(621,268)" d="m0 0 160 1v1l-8 1v6l2 7-6 9-1 3-4 2-2 3 3 2 26 1 3 2-85 1-45 1-8 7-17 16-10 9-5 5-4 1z" fill="#01D3FE"/>
<path transform="translate(709,306)" d="m0 0h107l-2 4-15 14-11 9-11 10-5 3h-151l5-4 10-10 8-7 15-14 5-4z" fill="#017AE5"/>
<path transform="translate(693,428)" d="m0 0 2 4 1 8-1 6 1 14 4 8 2 7 1 1v6l-6 12-5 5-1 4-12 12-7 8-15 16-19 19-7 8-7 7h-2l-1 2-1-3v-72l27-27 7-8 24-24 1-2h2v-2l8-5z" fill="#0193F4"/>
<path transform="translate(670,746)" d="m0 0h23l14 14 7 8 7 7 7 8 12 13 1 1 1-51h22v85h-21l-9-9-7-8-15-16-7-8-11-12-1 53h-23z" fill="#0190F2"/>
<path transform="translate(781,746)" d="m0 0h52l16 3 11 4 10 8 6 9 3 8 1 6v9l-3 12-6 10-9 8-11 5-14 3h-56zm23 16v54h20l12-2 10-5 7-8 2-6v-12l-3-8-5-6-10-5-9-2z" fill="#01A2FA"/>
<path transform="translate(985,270)" d="m0 0 4 4 10 15 10 18 9 19 9 25 6 22 5 27v3l-11-2-27-6-2-6-5-21-9-26-10-22-11-19-8-11-3-5v-4l2-4 7 1 4 2h2l-2-6-3-1 1-2h5l1 3 3 1 4-2z" fill="#0193F4"/>
<path transform="translate(984,746)" d="m0 0h51l13 2 12 6 6 7 3 8v13l-4 10-8 7-6 3h-2l10 13 12 15v1h-25l-14-18-5-6-20-1 1 25h-24zm23 16v29h24l8-3 5-4 1-2v-11l-5-6-8-3z" fill="#0191F3"/>
<path transform="translate(914,267)" d="m0 0h1l1 29v49l-48 48-1-2-3 1v-2h-2l-3-11-3-9-4-13-3-5-3-2-6 1-6 3-3 2 2-4 13-13 7-8 10-10 7-8 11-11 1-2h2l2-4 27-27z" fill="#0161D2"/>
<path transform="translate(594,746)" d="m0 0h26l10 19 33 66-2 1-24-1-7-15v-2l-46 1-7 16h-26l25-50 10-21zm12 19-14 31-1 3h31l-3-9-12-25z" fill="#0190F2"/>
<path transform="translate(892,746)" d="m0 0h76v16h-53v19h48v15h-48v20h55v15l-78 1z" fill="#018EF1"/>
<path transform="translate(463,746)" d="m0 0h82v15l-3 1-2 4-9 9-7 8-13 14-7 8-7 7-1 2h-2v2h51l1 2v13l-2 1-85-1v-10l7-8 11-11 7-8 9-9 7-8 14-15-51-1z" fill="#01A3FB"/>
<path transform="translate(766,350)" d="m0 0 2 1-14 15-9 9 1 3h2l-1 6-1 2v8l2 9 5 6 2 7 8 1-3 10-1 4-5 4-7 8-12 13-15 16-7 8-5 5-8 9-5 5-4 2 2-4 5-6 4-9v-6l-3-7-2-6-2-5-1-16 1-7-2-6-6 6-2-1 7-8 29-29 7-8 31-31z" fill="#01B1FD"/>
<path transform="translate(766,538)" d="m0 0h109l4 2-2 1-1 3h-2l-2 6-3 8-2 7-1 8 12 1v1h-94l-5-13-5-5-4-9-2-4v-4z" fill="#017AE5"/>
<path transform="translate(792,498)" d="m0 0h121l-2 4-34 34-2 1h-42l-41-1v-1l21-1-2-6h-2v-2h-2l-5-14 1-7 3-5-14-1z" fill="#01D3FE"/>
<path transform="translate(534,296)" d="m0 0h3 5l3 4 2 5v3h2l4 7 3 9 3 1-3 9-7 18-7 23-4 18-1 2-36 8h-2l1-9 6-29 8-26 8-20 8-16z" fill="#0193F4"/>
<path transform="translate(855,267)" d="m0 0h59l-2 4-27 27-1 2h-2l-2 4-15 15-7 8-6 1-10-6-8-6-6-3-2-3-1-10 1-7h2l2-14 1-5 3-4-211-1v-1z" fill="#01B0FD"/>
<path transform="translate(794,162)" d="m0 0 29 5 20 5 24 8 24 11 16 9 1 3-5-2-9 3-4 4-3 6-3 10 2 2-3 1-16-8-19-8-15-5-22-5-9-2-2-5-7-31z" fill="#01AEFC"/>
<path transform="translate(561,401)" d="m0 0h3l1 51-8-1-57-12-47-9-9-2 2-2 46-10 26-5z" fill="#0192F4"/>
<path transform="translate(971,401)" d="m0 0 12 2 40 9 67 14 2 2-52 10-58 12-11 2z" fill="#0192F3"/>
<path transform="translate(742,619)" d="m0 0h51l-1 8-14 62-9 40-2 2-3-12-19-83-3-14z" fill="#0190F2"/>
<path transform="translate(767,111)" d="m0 0h2l9 43 9 40 6 27v4h-51l14-64z" fill="#0191F3"/>
<path transform="translate(662,308)" d="m0 0h34l-1 7 1 3h2l2 4 1 4 2-2 5 3 3 2 4 9 2 6 52 1v1h-148l5-4 10-10 8-7 15-14z" fill="#0160D2"/>
<path transform="translate(575,247)" d="m0 0 8 2 1 4-2 5h2l3 9-1 2h-2v4l7 2v3l-11 14-10 15-10 18h-5l-4-13-2-4h-2l-4-10-1-1h-5l-2 1 1-6 13-19 13-16 7-8v3l5-4z" fill="#01A2FB"/>
<path transform="translate(756,446)" d="m0 0 4 5 1 3h2v2l6 1 5 4 5 5 2 6-3 2 3 6-18 18-2-2-5-2-1-2-4 1-1 3-4 1v-2l-5-2-3-1-1-3-5-2-2-2-2 2-2-1v-3h-2v-2h-4l-1 2-3-5 4-5 3-5 15-16 5-5 9 1z" fill="#016CDA"/>
<path transform="translate(741,162)" d="m0 0h1l-1 10-6 26-4 2-20 4-23 7h-6l4-3 2-2-1-8-5-3 2-4-1-5h-7l-7-3 2-1v-2l19-7 18-5z" fill="#01BDFE"/>
<path transform="translate(858,328)" d="m0 0h7l5 4 4 2 2 7h4l3 7 2 7-1 1 3 3 1 5h2v2l5-3-1 4-26 26-1-2-3 1v-2h-2l-3-11-3-9-4-13-3-5-3-2-6 1-6 3-3 2 2-4 13-13 5-6h4l2-4z" fill="#016CDA"/>
<path transform="translate(621,268)" d="m0 0 1 2 5 2 6 6v2l4 2 12 12 2 1v2h2l5 5 1 3 4 2-6 7-7 7-8 7-15 14-3 3-4 1z" fill="#0194F4"/>
<path transform="translate(722,395)" d="m0 0h2l-2 4-13 13 5 3 2 9 2 13 3 9 4 9v9l2 1-16 16-9 10-5 5-4 5h-2l2-4 5-6 4-9v-6l-3-7-2-6-2-5-1-16 1-7-2-6-6 6-2-1 7-8 29-29z" fill="#01A4FB"/>
<path transform="translate(768,498)" d="m0 0h24l15 1-4 8 1 8 3 8v3h2v2h2l3 7 19 1 1 2-18 1-80-1-6-1v-2h41l-3-8v-10l4-11 3-2 2-5h-9z" fill="#01B1FE"/>
<path transform="translate(971,401)" d="m0 0 12 2 40 9 57 12v2l-108 1z" fill="#01ADFC"/>
<path transform="translate(561,401)" d="m0 0 2 1v27l-2-2h-37l-68-1v-1l14-3h4v-2l25-5 41-9z" fill="#01AEFC"/>
<path transform="translate(473,809)" d="m0 0 14 2 6 4 52 1 1 2v13l-2 1-85-1v-10l7-8 3-2v2h2z" fill="#0178E3"/>
<path transform="translate(742,620)" d="m0 0h50v1h-24l-1 102-3-4-19-83z" fill="#01A2FB"/>
<path transform="translate(766,116)" d="m0 0h2l1 4-1 17-1 87-25 1 14-64z" fill="#01BEFE"/>
<path transform="translate(594,746)" d="m0 0h26l10 19 7 14-1 4-14-2h-7l-3-3-5-11-2 2-6 13h-2l-1 2-2-4-6-2-8 1-3 4 1-7 9-17 6-12z" fill="#01A8F9"/>
<path transform="translate(892,746)" d="m0 0h75v1h-74l1 68 5-2h12l1-5h1l1-12h1v20h55v15l-78 1z" fill="#0175E1"/>
<path transform="translate(967,746)" d="m0 0h1v16l-54-1v17h-1l-1-5-8 2-9 1-1 24h-1v-53z" fill="#01A4FB"/>
<path transform="translate(670,746)" d="m0 0h21v1h-20l1 28 18 1 3 3v52h-23z" fill="#0190F2"/>
<path transform="translate(803,761)" d="m0 0h23v1h-22v54l20-1 12-2 9-3-5 6 14-1 8 4-1 2 2 1-12 6-14 3h-54v-23h1v6h16l1-3 1 1z" fill="#0177E2"/>
<path transform="translate(764,497)" d="m0 0h150l-1 2h-136l-2 6-3 1-3 11v10l2 6v2h-41v2h6v1l-14 1v-3l12-11 25-25z" fill="#0194F5"/>
<path transform="translate(691,746)" d="m0 0 4 2 12 12 7 8 3 3 3 5-1 2-14 1-6-2v3l-4-1h-2l-1 26h-1l-1-28-17-1-1 21h-1v-50z" fill="#01A3FB"/>
<path transform="translate(511,765)" d="m0 0v3 2l3 1v2l11-1 2 4-1 2 2 1-8 8-7 8-11 12-6 7h-2l-1 2-6-4-13-2-3 3h-2l1-4 7-7 7-8 9-9 7-8z" fill="#0191F3"/>
<path transform="translate(792,498)" d="m0 0h26l22 1-2 4h-3l-3 3v10l4 5 4 6 6 5 4 2v1h-36l-3-5v-2h-2v-2h-2l-5-14 1-7 3-5-14-1z" fill="#01C1FF"/>
<path transform="translate(877,775)" d="m0 0 2 3 1 6v9l-3 12-6 10-7 6-5 1 2-3-7-3h-14l2-4 5-5 5-6 2-6 1-12 1-1v-4l4-1 9 1 6 3h2z" fill="#0191F3"/>
<path transform="translate(736,538)" d="m0 0h30l3 2 1 6 4 9 1 4 4 2 5 10v4h-40v-1l14-1v-3l-8-9-2-1-3-6-2-9-1-2 2-3-8-1z" fill="#016DDB"/>
<path transform="translate(781,746)" d="m0 0h43v1h-42l1 26 1 2h6v2l5-2 6-1 1 1 1 10v30l-2-3-1 2-11 1-5-1-1 17h-2z" fill="#018DF0"/>
<path transform="translate(896,267)" d="m0 0h18l-2 4-27 27-1 2h-2l-2 4-3 2-5-1-5-2-1-2v-7l3-9h2l2-4 3-4 1-4 2-2 9-3z" fill="#01A4FB"/>
<path transform="translate(877,541)" d="m0 0 4 2 22 22 8 7 1 2-8 1h-26l-13-1 1-11 3-6 3-10z" fill="#016DDB"/>
<path transform="translate(673,308)" d="m0 0h23l-1 7 1 3h2l2 4 1 4 2-2 5 3 3 2 4 9 2 6-6 1h-20l3-2-4-8-2-2-2-5-4-5v-2l-6-1-4-3v-2l-3-1v-2h-2v-2l-3-1z" fill="#016DDB"/>
<path transform="translate(842,340)" d="m0 0h2l-2 4-20 20-7 8-22 22-4 5h-2l-2 4-4 2v2h-2l2-4 10-10 5-8 4-13-3-5v-9l2-6 3-1v10l-1 4 2 2-1 6h2l1-10-2-4v-5l3-2h9v-3l8-2 5 2 3-2 6-2z" fill="#01D2FE"/>
<path transform="translate(463,746)" d="m0 0h82v14h-1v-13l-29 1-7 1-1 2 4 4 1 4 3 2h-52z" fill="#0189ED"/>
<path transform="translate(763,746)" d="m0 0h1v10h-2l1 3v25l-2 2-1-9-13 1h-3v8h-1v-39z" fill="#01A4FC"/>
<path transform="translate(984,746)" d="m0 0h48v1h-47v83l1-1v-16l19-3 1-5h21v1h-20l1 25h-24z" fill="#0170DE"/>
<path transform="translate(1048,807)" d="m0 0h2l1 2h3l14 17 3 5h-25l-14-18v-3l1 1 2-3z" fill="#0178E3"/>
<path transform="translate(691,746)" d="m0 0 4 2 12 12 3 4-1 3-4-4h-8l-7 2-16-2-1-1-1 35h-1v-50z" fill="#01ADFC"/>
<path transform="translate(763,801)" d="m0 0h1v30h-21l-9-9-7-8 3-4h5l2 3h14l7-1v2l3-1 1 5z" fill="#0178E3"/>
<path transform="translate(562,402)" d="m0 0h1v27l-2-2h-37l-68-1v-1l14-3h4l1-2h5l1 3 15 1 14-1 21-2 22-2 7-1 1-2z" fill="#01BFFE"/>
<path transform="translate(768,666)" d="m0 0 1 3h2l1-3 7 11 1 4-11 48-2 2-2-7 1-4v-16l1-26z" fill="#017AE5"/>
<path transform="translate(973,409)" d="m0 0h1v12h42l11 1h21l4-2 18 2 10 2v2h-107z" fill="#01BFFE"/>
<path transform="translate(768,498)" d="m0 0h19v5l-4 5-3 6-1 11 1 3 5 1 3 5v1h-17l-3-8v-10l4-11 3-2 2-5h-9z" fill="#01A4FC"/>
<path transform="translate(670,746)" d="m0 0h21v1h-20l1 68 15-1h4v17h-21z" fill="#0173E0"/>
<path transform="translate(619,759)" d="m0 0 4 2 1 5 6 2 3 3 4 8-1 4-14-2h-7l-3-3-3-7 1-6h2v-2z" fill="#01A2FA"/>
<path transform="translate(630,814)" d="m0 0h10l13 2 3 1 7 14-2 1-24-1-7-15z" fill="#0178E3"/>
<path transform="translate(589,760)" d="m0 0h8l7 3 1 6-6 13h-2l-1 2-2-4-6-2-8 1-3 4 1-7 7-14z" fill="#01A1F9"/>
<path transform="translate(1023,378)" d="m0 0h8l1 2 1 15-1 4-8-1-2-1v2l-8-1 3-2-6-2-3-2 2-7 9-5z" fill="#017AE5"/>
<path transform="translate(576,814)" d="m0 0 5 2 1 3-5 12h-26l4-8h2l4-7z" fill="#0178E3"/>
<path transform="translate(1021,453)" d="m0 0h5l2 1 3 1v4l1 8-3 1-5 1h-9l-5-2v-2l-6-3h-2l-2 4v-7l2-2z" fill="#017AE5"/>
<path transform="translate(985,747)" d="m0 0 45 1v1l-22 1v4l-3 6-6 2-7 2-2-1v-2l-3-1v-4l-1 32h-1z" fill="#01A5FC"/>
<path transform="translate(881,544)" d="m0 0 7 6 15 15 8 7 1 2h-26v-10l-1-8-1-7-3-3z" fill="#0160D2"/>
<path transform="translate(757,671)" d="m0 0 6 1 3 7v24l-1 10v5l-2-4-8-34 1-8z" fill="#0190F2"/>
<path transform="translate(511,383)" d="m0 0h4v2l9 1 3 3 1 5-5 1-4-6-5-2 1 3-3 5v3l2 2-15 3 1-9 2-10z" fill="#0179E4"/>
<path transform="translate(782,748)" d="m0 0h49l-1 3-8 2h-15l-3-1-5 3-9-1-5-3-2-2v34h-1z" fill="#01B4FE"/>
<path transform="translate(730,535)" d="m0 0h33l70 1 1 2-18 1-80-1-6-1z" fill="#01A4FA"/>
<path transform="translate(743,747)" d="m0 0 19 1v6h-1v-5l-1 1v8l-5-1-4 1-5-1v2h-2v17h-1z" fill="#01B0FD"/>
<path transform="translate(700,639)" d="m0 0 15 2 5 1v2l7 1-4 2-3 1-1 3h-5l-10-4-1-4 1-1-4-1z" fill="#019FF8"/>
<path transform="translate(709,306)" d="m0 0h80v1l-29 2-4-1h-44z" fill="#019EF8"/>
<path transform="translate(824,746)" d="m0 0h9l16 3 1 3-7 1-10-1-2-4h-49v-1z" fill="#01A0F7"/>
<path transform="translate(514,386)" d="m0 0 5 2 2 2 3 5 3 2-13 3-5-1 3-1-1-4 2-3 1-2-2-2z" fill="#0190F2"/>
<path transform="translate(807,748)" d="m0 0h24l-1 3-8 2h-15l-1-3h-6v-1z" fill="#01B0FD"/>
<path transform="translate(510,453)" d="m0 0h2v5l1 2-1 8 3 1-6 7h-3l-1-4 1-3v-10l2-2h3z" fill="#0179E4"/>
<path transform="translate(1033,379)" d="m0 0 2 4 3 17v3l-11-2-5-1v-3l10 2v-18z" fill="#0189ED"/>
<path transform="translate(474,420)" d="m0 0h6l1 3 11 1 1 2h-37v-1l14-3h4z" fill="#01C2FE"/>
<path transform="translate(766,704)" d="m0 0 4 3 2-1 1 6-4 17-2 2-2-7 1-4z" fill="#018BEE"/>
<path transform="translate(766,116)" d="m0 0h2l1 4-2 45h-1l-1-32h-1v-9z" fill="#01D4FF"/>
<path transform="translate(730,535)" d="m0 0h33l-3 2-10 1h-14l-6-1z" fill="#01AAFC"/>
<path transform="translate(801,351)" d="m0 0 1 2v8l-1 4 2 2-1 5-5-5v-9l2-6z" fill="#01D4FF"/>
<path transform="translate(854,753)" d="m0 0 9 2 8 7-1 4-4-1v-2l-2-1-2-3-2 1-4-2v-4z" fill="#01A5F9"/>
<path transform="translate(753,620)" d="m0 0h39v1h-24l-1 6-7-3-1-2-6-1z" fill="#01B1FD"/>
<path transform="translate(562,401)" d="m0 0h2v40l-2 1v-7l-2-1v-7l2-1z" fill="#0196F5"/>
<path transform="translate(901,269)" d="m0 0h9l-1 3h-3l-2 7-5 2v-7l-1-2 3-2z" fill="#0195F5"/>
<path transform="translate(766,680)" d="m0 0h1v43l-3-4v-10l1-6z" fill="#01A7FC"/>
<path transform="translate(516,385)" d="m0 0 8 1 3 3 1 5-5 1-4-6-3-2z" fill="#017AE5"/>
<path transform="translate(766,350)" d="m0 0 2 1-14 15-10 10-2-1 17-17z" fill="#01A9FA"/>
<path transform="translate(469,421)" d="m0 0h5l-4 2-9 2h-5v2l-10 2-2-2 16-4z" fill="#019CF6"/>
<path transform="translate(979,263)" d="m0 0 4 3-1 2-5 2-2-1-3 1-1-4 3-2z" fill="#0193F4"/>
<path transform="translate(502,390)" d="m0 0 1 2h2l-1 5-1 2 2 1v2l-6 1 1-9z" fill="#018AEE"/>
<path transform="translate(766,116)" d="m0 0h2l1 4-1 17h-1l-1-12-2 4 1-9z" fill="#01B1FC"/>
<path transform="translate(763,746)" d="m0 0h1v10h-3l1-8h-18v-1z" fill="#019FF9"/>
<path transform="translate(1007,456)" d="m0 0 6 1-4 2h-3v2l-4 1-2 4v-7l2-2z" fill="#0180E8"/>
<path transform="translate(895,279)" d="m0 0 3 3-5 6-2-3 1-5z" fill="#0194F5"/>
<path transform="translate(854,753)" d="m0 0 9 2v3l-1 2-6-2v-4z" fill="#01AAFA"/>
<path transform="translate(730,535)" d="m0 0h12l2 2-1 1-13-1z" fill="#01A2FB"/>
<path transform="translate(549,513)" d="m0 0 2 2 5 11-1 2-3-3-3-5z" fill="#0185E9"/>
<path transform="translate(822,641)" d="m0 0 4 1-6 3-3 2-4-4zm-13 3 4 1z" fill="#0188EC"/>
<path transform="translate(843,810)" d="m0 0 2 1-7 5-6 1v-3z" fill="#017DE5"/>
<path transform="translate(779,677)" d="m0 0 1 4-2 8h-2v-9z" fill="#0184EA"/>
<path transform="translate(720,643)" d="m0 0 9 1 5 2-1 3v-2l-8 1v-2l-5-2z" fill="#018AED"/>
<path transform="translate(802,646)" d="m0 0h6l-3 2-3 9-2-4z" fill="#019CF6"/>
<path transform="translate(520,457)" d="m0 0h2l-1 5 1 5-4-1v-7z" fill="#017AE5"/>
<path transform="translate(561,426)" d="m0 0 2 3v13h-1v-7l-2-1v-7z" fill="#01A7FC"/>
<path transform="translate(1006,759)" d="m0 0h5v2l-4 1-1 14h-1v-16z" fill="#01A2FB"/>
<path transform="translate(734,650)" d="m0 0 2 4 2 9-1 4v-3h-2l-1-9z" fill="#018AED"/>
<path transform="translate(850,633)" d="m0 0 4 1h-2v2l-9 2-4-1z" fill="#0185EA"/>
<path transform="translate(453,427)" d="m0 0h8l-2 2 3 2-9-1-4-2z" fill="#0181E9"/>
<path transform="translate(676,210)" d="m0 0 5 1-1 3-2 1h-6l2-1z" fill="#01B4FC"/>
<path transform="translate(776,408)" d="m0 0h2l-2 4-7 8h-2l2-4z" fill="#01CDFE"/>
<path transform="translate(567,307)" d="m0 0h2l-2 5-4 7-1-4z" fill="#0191EF"/>
</svg>
